<svg xmlns="http://www.w3.org/2000/svg" viewBox="0 0 100 100" fill="#7c0f0a" shape-rendering="geometricPrecision">
  <!-- główna plama krwi -->
  <path d="M45 19c10-7 24-4 27 8 2 7 8 8 12 13 5 6 4 16-4 20-6 3-8 9-16 11-10 3-23 1-30-8-4-5-11-6-13-13-2-8 4-12 5-20 1-7 9-6 19-11z"/>
  <!-- mniejsza plama obok -->
  <path d="M74 60c6-3 13 1 12 8-1 6-8 9-14 6-5-3-5-11 2-14z"/>
  <!-- odpryski -->
  <circle cx="18" cy="28" r="4.2"/>
  <circle cx="86" cy="40" r="2.6"/>
  <circle cx="28" cy="80" r="3.4"/>
  <circle cx="72" cy="12" r="2.6"/>
  <circle cx="11" cy="50" r="2.1"/>
  <circle cx="90" cy="72" r="2"/>
  <circle cx="52" cy="90" r="2.4"/>
  <!-- zacieki (krople ściekające) -->
  <path d="M39 68c1 11 4 17 3 24-1 3-6 3-7-1-1-7 2-16 4-23z"/>
  <path d="M60 71c1 8 3 12 2 16-1 3-5 2-5-1-1-5 1-11 3-15z"/>
</svg>
